<svg width="45" height="44" viewBox="0 0 45 44" fill="none" xmlns="http://www.w3.org/2000/svg">
<g clip-path="url(#clip0_1_30867)">
<path d="M26.1667 22C26.1667 26.0443 29.4557 29.3333 33.5 29.3333C37.5443 29.3333 40.8333 26.0443 40.8333 22C40.8333 17.9557 37.5443 14.6667 33.5 14.6667C29.4557 14.6667 26.1667 17.9557 26.1667 22ZM33.5 16.5C36.5323 16.5 39 18.9677 39 22C39 25.0323 36.5323 27.5 33.5 27.5C30.4677 27.5 28.0018 25.0323 28.0018 22C28.0018 18.9677 30.4677 16.5 33.5 16.5ZM22.5 14.6667C26.5443 14.6667 29.8333 11.3777 29.8333 7.33333C29.8333 3.289 26.5443 0 22.5 0C18.4557 0 15.1667 3.289 15.1667 7.33333C15.1667 11.3777 18.4557 14.6667 22.5 14.6667ZM22.5 1.83333C25.5323 1.83333 28 4.301 28 7.33333C28 10.3657 25.5323 12.8333 22.5 12.8333C19.4677 12.8333 17 10.3657 17 7.33333C17 4.301 19.4677 1.83333 22.5 1.83333ZM11.5 29.3333C15.5443 29.3333 18.8333 26.0443 18.8333 22C18.8333 17.9557 15.5443 14.6667 11.5 14.6667C7.45567 14.6667 4.16667 17.9557 4.16667 22C4.16667 26.0443 7.45567 29.3333 11.5 29.3333ZM11.5 16.5C14.5323 16.5 17 18.9677 17 22C17 25.0323 14.5323 27.5 11.5 27.5C8.46767 27.5 6 25.0323 6 22C6 18.9677 8.46767 16.5 11.5 16.5ZM44.5 42.625V43.0833C44.5 43.5893 44.0893 44 43.5833 44C43.0773 44 42.6667 43.5893 42.6667 43.0833V42.625C42.6667 39.4405 41.09 36.4668 38.4463 34.6702C38.0173 34.375 37.405 34.4887 37.0567 34.9232L34.8457 37.6878C34.0207 38.72 32.2918 38.7237 31.4632 37.6878L29.1715 34.8242C28.8305 34.397 28.2218 34.2797 27.791 34.5638C25.052 36.3495 23.4167 39.3635 23.4167 42.6268V43.0852C23.4167 43.5912 23.006 44.0018 22.5 44.0018C21.994 44.0018 21.5833 43.5912 21.5833 43.0852V42.6268C21.5833 39.4423 20.0048 36.4687 17.363 34.672C16.9303 34.3805 16.3217 34.4905 15.9733 34.925L13.7623 37.6897C13.3498 38.2048 12.7338 38.5018 12.072 38.5018C11.412 38.5018 10.796 38.2048 10.3817 37.6897L8.08817 34.8242C7.74717 34.397 7.14217 34.2815 6.70767 34.5638C3.96867 36.3495 2.33333 39.3635 2.33333 42.6268V43.0852C2.33333 43.5912 1.92267 44.0018 1.41667 44.0018C0.910667 44.0018 0.5 43.5893 0.5 43.0833V42.625C0.5 38.7402 2.447 35.1505 5.70667 33.0257C6.92217 32.2355 8.59417 32.5215 9.52 33.6765L11.8117 36.542C11.9822 36.7583 12.1563 36.7602 12.3287 36.542L14.5397 33.7773C15.482 32.6003 17.1742 32.3253 18.3915 33.154C20.2468 34.4153 21.6457 36.1717 22.4945 38.1718C23.369 36.1002 24.8357 34.298 26.7882 33.0257C28.0018 32.2355 29.6757 32.5197 30.6033 33.6765L32.895 36.542C33.071 36.7638 33.2433 36.7547 33.412 36.542L35.623 33.7773C36.5672 32.6022 38.2593 32.3272 39.4748 33.1522C42.6208 35.2917 44.5 38.8318 44.5 42.625Z" fill="#9FE0C1"/>
</g>
<defs>
<clipPath id="clip0_1_30867">
<rect width="44" height="44" fill="white" transform="translate(0.5)"/>
</clipPath>
</defs>
</svg>
