<svg width="45" height="44" viewBox="0 0 45 44" fill="none" xmlns="http://www.w3.org/2000/svg">
<path d="M10.9397 21.7333L11.3893 21.5517L10.9806 21.2908C8.03362 19.4098 6.09709 16.2285 6.09709 12.6541C6.09709 6.93866 11.0522 2.25 17.157 2.25C23.2615 2.25 28.2166 6.93848 28.2168 12.6538C28.2146 14.3574 27.7692 16.0354 26.9185 17.5409C26.0678 19.0465 24.8374 20.3343 23.3337 21.2906L22.9223 21.5522L23.3748 21.7336C25.1627 22.4504 26.7972 23.4662 28.1992 24.7312L28.3703 24.8856L28.5381 24.7275L34.9457 18.6898C34.9463 18.6893 34.9468 18.6888 34.9474 18.6883C35.8169 17.9002 36.9821 17.4614 38.1945 17.4698C39.4076 17.4782 40.5663 17.9336 41.4235 18.7344C43.1924 20.4013 43.1922 23.1718 41.4229 24.8385L25.1675 40.1513L24.7347 40.2321L24.7339 40.2322L19.0313 41.2792L19.0312 41.2792L19.0273 41.28L17.0316 41.6793L17.4509 39.8207L17.4509 39.8207L17.4519 39.8163L18.5633 34.4415L18.5635 34.4406L18.6473 34.0433L26.2147 26.9147L26.4125 26.7284L26.2104 26.5468C23.846 24.4218 20.6886 23.0582 17.157 23.0582C9.96385 23.0582 4.12443 28.4566 3.98398 35.2343H1.25221C1.35913 29.1885 5.33665 23.9973 10.9397 21.7333ZM23.7185 37.8223L23.7889 37.8083L23.8412 37.759L39.4908 23.0168C39.4914 23.0162 39.492 23.0157 39.4925 23.0152C39.6691 22.8543 39.8104 22.6608 39.9073 22.4458C40.0046 22.23 40.055 21.9973 40.055 21.7618C40.055 21.5263 40.0046 21.2936 39.9073 21.0778C39.8104 20.8627 39.669 20.6692 39.4924 20.5083C39.1146 20.1534 38.6196 20.0146 38.1634 20.0141C37.9259 20.0099 37.6897 20.0514 37.4691 20.1364C37.2482 20.2215 37.047 20.3487 36.8785 20.5109C36.8782 20.5112 36.8778 20.5115 36.8775 20.5118L21.2267 35.2551L21.1709 35.3077L21.1542 35.3825L20.5483 38.0933L20.4646 38.4677L20.8409 38.393L23.7185 37.8223ZM25.4854 12.6541C25.4854 8.28162 21.7611 4.79402 17.157 4.79402C12.5528 4.79402 8.82848 8.28162 8.82848 12.6541C8.82848 17.0266 12.5528 20.5141 17.157 20.5141C21.7611 20.5141 25.4854 17.0266 25.4854 12.6541Z" fill="#9FE0C1" stroke="#030203" stroke-width="0.5"/>
</svg>
