<svg width="248" height="35" viewBox="0 0 249 35" fill="none" xmlns="http://www.w3.org/2000/svg">
<path fill-rule="evenodd" clip-rule="evenodd" d="M224.492 34.99H227.517C243.912 34.99 246.629 29.4858 246.629 24.1127V23.5011C246.629 17.0359 241.676 14.0654 229.402 13.847L223.922 13.7596C217.259 13.6286 216.383 12.3617 216.383 10.9639C216.383 9.56597 216.952 8.16809 224.843 8.16809H225.544C234.092 8.16809 234.75 10.8328 234.969 12.056H245.577V11.6191C245.577 6.72652 242.071 1.35339 226.64 1.35339H223.616C208.755 1.35339 205.862 6.42073 205.862 11.2696V11.6628C205.862 16.7301 209.588 20.8364 221.774 21.1859L227.385 21.3169C234.925 21.5354 235.933 22.7148 235.933 24.5932C235.933 26.3406 234.969 28.0443 226.377 28.0443H225.763C217.347 28.0443 216.207 24.8553 216.076 22.8896H205.424V23.3701C205.424 27.6511 207.396 34.99 224.492 34.99ZM179.134 9.61V34.4225H189.435V9.61H203.507V1.92163H165.106V9.61H179.134ZM161.394 1.92163V34.4225H151.18V1.92163H161.394ZM115.275 1.92163H103.878V34.4225H113.96V12.8863L136.097 34.4225H146.18V1.92163H136.097V22.3657L115.275 1.92163ZM79.2538 34.903H77.6757C60.1851 34.903 57.3358 23.8073 57.3358 17.6915V1.92163H67.5934V17.08C67.5934 21.2736 69.4784 26.472 78.3771 26.472C87.1443 26.472 89.0731 21.2736 89.0731 17.08V1.92163H99.2869V17.6915C99.2869 23.8073 95.9554 34.903 79.2538 34.903ZM33.7674 33.0557V17.5002H49.3767V1.94461H33.7669V17.5001H18.1576V1.94456H2.54785V33.0557H33.7674Z" fill="#9FE0C1"/>
</svg>
