<svg width="45" height="44" viewBox="0 0 45 44" fill="none" xmlns="http://www.w3.org/2000/svg">
<path d="M39.3902 5.02218C39.2716 4.91969 39.1273 4.85158 38.9728 4.82523C38.8183 4.79887 38.6595 4.81527 38.5137 4.87265L3.68148 18.5041C3.32639 18.6419 3.02573 18.8914 2.82481 19.215C2.62389 19.5386 2.53359 19.9187 2.56754 20.2981C2.60148 20.6775 2.75782 21.0356 3.01299 21.3183C3.26817 21.6011 3.60835 21.7933 3.98226 21.8659L13.5626 23.7462V34.375C13.5625 34.7862 13.6854 35.188 13.9154 35.5289C14.1454 35.8698 14.472 36.1341 14.8534 36.288C15.0987 36.3864 15.3607 36.4372 15.6251 36.4375C15.9018 36.4369 16.1756 36.3805 16.4302 36.2719C16.6847 36.1632 16.9148 36.0044 17.1066 35.805L21.9191 30.8206L29.3098 37.302C29.6844 37.6325 30.1663 37.8157 30.6659 37.8176C30.884 37.8167 31.1008 37.7825 31.3087 37.7162C31.6489 37.6085 31.955 37.4134 32.1963 37.1504C32.4375 36.8874 32.6056 36.5658 32.6837 36.2175L39.6652 5.86437C39.7002 5.71225 39.6931 5.55348 39.6446 5.4051C39.5962 5.25673 39.5082 5.12435 39.3902 5.02218ZM3.93757 20.1747C3.92749 20.0915 3.94622 20.0075 3.99063 19.9365C4.03505 19.8655 4.10246 19.8118 4.18164 19.7845L34.1996 8.03687L14.0902 22.4486L4.24867 20.5167C4.16525 20.5045 4.08865 20.4637 4.03192 20.4014C3.9752 20.339 3.94185 20.2589 3.93757 20.1747ZM16.1184 34.8494C16.0233 34.9473 15.9013 35.0147 15.7678 35.043C15.6343 35.0714 15.4954 35.0593 15.3688 35.0084C15.2421 34.9576 15.1335 34.8702 15.0567 34.7574C14.9799 34.6446 14.9385 34.5115 14.9376 34.375V24.6984L20.881 29.9062L16.1184 34.8494ZM31.343 35.9047C31.3165 36.0214 31.2598 36.1291 31.1788 36.2173C31.0978 36.3054 30.9952 36.3708 30.8811 36.4071C30.7671 36.4434 30.6455 36.4493 30.5284 36.4242C30.4114 36.399 30.303 36.3438 30.2138 36.2639L15.3552 23.2341L37.9912 7.01249L31.343 35.9047Z" fill="#9FE0C1"/>
</svg>
